<svg width="100" height="100" viewBox="0 0 100 100" fill="none" xmlns="http://www.w3.org/2000/svg">
<path d="M49.8604 4.16669L6.25 19.3438L13.1417 75.85L49.9062 95.8334L86.8604 75.5792L93.75 19.075L49.8604 4.16669Z" fill="#BDBDBD"/>
<path d="M89.2042 21.9312L50 8.61456V91.0312L82.9833 72.9521L89.2042 21.9312Z" fill="#B71C1C"/>
<path d="M49.8771 8.57294L10.7937 22.175L17.0167 73.2146L49.8979 91.0854L50 91.0313V8.6146L49.8771 8.57294Z" fill="#DD2C00"/>
<path d="M50 12.4916V32.3L67.8708 70.8333H77.0562L50 12.4916Z" fill="#BDBDBD"/>
<path d="M22.9437 70.8333H32.1292L50 32.3V12.4916L22.9437 70.8333Z" fill="#EEEEEE"/>
<path d="M50 50H62.5V58.3333H50V50Z" fill="#BDBDBD"/>
<path d="M37.5 50H50V58.3333H37.5V50Z" fill="#EEEEEE"/>
</svg>
