<svg width="100" height="100" viewBox="0 0 100 100" fill="none" xmlns="http://www.w3.org/2000/svg">
<path d="M87.5 77.0833C87.5 82.8375 82.8375 87.5 77.0833 87.5H22.9167C17.1646 87.5 12.5 82.8375 12.5 77.0833V22.9167C12.5 17.1625 17.1646 12.5 22.9167 12.5H77.0833C82.8375 12.5 87.5 17.1625 87.5 22.9167V77.0833Z" fill="#673AB7"/>
<path d="M68.8125 53.3333C67.4583 51.4583 65.5 50.1667 62.9792 49.4792C62.9792 49.4792 65.1042 48.7083 67.0208 45.8333C68.1667 44 68.75 41.7917 68.75 39.2083C68.75 34.7292 67.125 31.2917 63.875 28.9375C60.625 26.5833 56.9583 25 50.7292 25H31.25V75H52.9792C58.875 74.9583 63.3125 73.6875 66.3333 71.25C69.3333 68.7708 70.8333 65.1042 70.8333 60.2083C70.8333 57.5 70.1667 55.2083 68.8125 53.3333ZM43.75 33.3333C43.75 33.3333 52.4375 33.3333 52.6042 33.3333C55.7708 33.3333 58.3333 35.8958 58.3333 39.0625C58.3333 42.2292 55.7708 44.7917 52.6042 44.7917C52.4375 44.7917 43.75 44.7917 43.75 44.7917V33.3333ZM54.1667 66.6667H43.75V54.1667H54.1667C57.625 54.1667 60.4167 56.9583 60.4167 60.4167C60.4167 63.875 57.625 66.6667 54.1667 66.6667Z" fill="white"/>
</svg>
