<svg width="32" height="32" viewBox="0 0 32 32" fill="none" xmlns="http://www.w3.org/2000/svg">
<path fill-rule="evenodd" clip-rule="evenodd" d="M19.7056 4.88162C19.905 4.94798 20.0894 5.05297 20.2483 5.19061C20.4071 5.32825 20.5373 5.49584 20.6313 5.6838C20.7254 5.87176 20.7815 6.0764 20.7964 6.28605C20.8114 6.49569 20.7848 6.70623 20.7184 6.90562L14.3184 26.1056C14.1843 26.5083 13.8957 26.8413 13.5162 27.0312C13.1366 27.2211 12.6971 27.2525 12.2944 27.1184C11.8917 26.9843 11.5588 26.6958 11.3688 26.3162C11.1789 25.9366 11.1475 25.4971 11.2816 25.0944L17.6816 5.89442C17.748 5.695 17.853 5.5106 17.9906 5.35176C18.1282 5.19292 18.2958 5.06276 18.4838 4.9687C18.6717 4.87465 18.8764 4.81855 19.086 4.80361C19.2957 4.78867 19.5062 4.81518 19.7056 4.88162ZM9.1312 10.0688C9.43115 10.3689 9.59966 10.7758 9.59966 11.2C9.59966 11.6243 9.43115 12.0312 9.1312 12.3312L5.4624 16L9.1312 19.6688C9.28402 19.8164 9.40591 19.993 9.48976 20.1882C9.57362 20.3834 9.61775 20.5933 9.6196 20.8058C9.62145 21.0182 9.58096 21.2289 9.50051 21.4256C9.42007 21.6222 9.30126 21.8008 9.15103 21.9511C9.0008 22.1013 8.82216 22.2201 8.62553 22.3005C8.42889 22.381 8.2182 22.4215 8.00576 22.4196C7.79331 22.4178 7.58336 22.3736 7.38815 22.2898C7.19295 22.2059 7.0164 22.084 6.8688 21.9312L2.0688 17.1312C1.76885 16.8312 1.60034 16.4243 1.60034 16C1.60034 15.5758 1.76885 15.1689 2.0688 14.8688L6.8688 10.0688C7.16884 9.76887 7.57574 9.60036 8 9.60036C8.42426 9.60036 8.83116 9.76887 9.1312 10.0688ZM22.8688 10.0688C23.1688 9.76887 23.5757 9.60036 24 9.60036C24.4243 9.60036 24.8312 9.76887 25.1312 10.0688L29.9312 14.8688C30.2312 15.1689 30.3997 15.5758 30.3997 16C30.3997 16.4243 30.2312 16.8312 29.9312 17.1312L25.1312 21.9312C24.9836 22.084 24.8071 22.2059 24.6118 22.2898C24.4166 22.3736 24.2067 22.4178 23.9942 22.4196C23.7818 22.4215 23.5711 22.381 23.3745 22.3005C23.1778 22.2201 22.9992 22.1013 22.849 21.9511C22.6987 21.8008 22.5799 21.6222 22.4995 21.4256C22.419 21.2289 22.3786 21.0182 22.3804 20.8058C22.3822 20.5933 22.4264 20.3834 22.5102 20.1882C22.5941 19.993 22.716 19.8164 22.8688 19.6688L26.5376 16L22.8688 12.3312C22.5688 12.0312 22.4003 11.6243 22.4003 11.2C22.4003 10.7758 22.5688 10.3689 22.8688 10.0688Z" fill="#F1DDBF"/>
</svg>
