<svg width="30" height="30" viewBox="0 0 30 30" fill="none" xmlns="http://www.w3.org/2000/svg">
<path d="M14.942 0C6.69082 0 0 6.87669 0 15.3598C0 22.1462 4.28133 27.9037 10.2183 29.9347C10.965 30.0769 11.2392 29.6015 11.2392 29.1958C11.2392 28.8296 11.2253 27.6195 11.2189 26.3361C7.06195 27.2652 6.1848 24.5238 6.1848 24.5238C5.50512 22.7484 4.52578 22.2765 4.52578 22.2765C3.17016 21.3231 4.62797 21.3426 4.62797 21.3426C6.12844 21.451 6.91852 22.9255 6.91852 22.9255C8.25117 25.2737 10.414 24.5948 11.2666 24.2024C11.4007 23.2096 11.788 22.5321 12.2153 22.1485C8.89652 21.76 5.40762 20.443 5.40762 14.5576C5.40762 12.8807 5.99133 11.5105 6.94723 10.4348C6.79207 10.0479 6.28066 8.48573 7.09195 6.37002C7.09195 6.37002 8.34668 5.95719 11.2021 7.94449C12.3939 7.60406 13.6721 7.43348 14.942 7.4277C16.2118 7.43348 17.4911 7.60406 18.6852 7.94449C21.5372 5.95719 22.7902 6.37002 22.7902 6.37002C23.6034 8.48573 23.0918 10.0479 22.9366 10.4348C23.8946 11.5105 24.4744 12.8806 24.4744 14.5576C24.4744 20.457 20.9789 21.7561 17.6517 22.1362C18.1876 22.6129 18.6652 23.5477 18.6652 24.9806C18.6652 27.0358 18.6478 28.6899 18.6478 29.1958C18.6478 29.6045 18.9168 30.0835 19.6743 29.9327C25.6079 27.8994 29.8839 22.144 29.8839 15.3598C29.8839 6.87669 23.194 0 14.942 0Z" fill="#161614"/>
<path d="M5.59631 21.8804C5.5635 21.9566 5.44654 21.9795 5.34025 21.9273C5.23185 21.8771 5.17092 21.7731 5.20607 21.6964C5.2383 21.6179 5.35525 21.596 5.46342 21.6487C5.57205 21.6987 5.63393 21.8038 5.59631 21.8804ZM6.33131 22.5545C6.26006 22.6225 6.12072 22.5909 6.02615 22.4836C5.92842 22.3765 5.91014 22.2334 5.98244 22.1643C6.05592 22.0965 6.19104 22.1282 6.28901 22.2354C6.38674 22.3437 6.40573 22.486 6.33119 22.5546L6.33131 22.5545ZM6.83557 23.417C6.74393 23.4824 6.59416 23.4211 6.5017 23.2845C6.41018 23.148 6.41018 22.9842 6.50369 22.9186C6.59651 22.8529 6.74393 22.9119 6.83768 23.0475C6.92909 23.1863 6.92909 23.3502 6.83545 23.4172L6.83557 23.417ZM7.68823 24.416C7.60632 24.5088 7.43194 24.484 7.3042 24.3573C7.17366 24.2334 7.13721 24.0577 7.21936 23.9648C7.30221 23.8718 7.47764 23.8979 7.60631 24.0236C7.73604 24.1472 7.77565 24.3243 7.68835 24.416H7.68823ZM8.79026 24.7533C8.75429 24.8736 8.58624 24.9283 8.41702 24.8772C8.24803 24.8245 8.13741 24.6836 8.17151 24.562C8.20667 24.441 8.37542 24.384 8.54593 24.4387C8.71468 24.4911 8.82554 24.631 8.79038 24.7533H8.79026ZM10.0446 24.8963C10.0489 25.0231 9.90531 25.1281 9.72765 25.1304C9.54894 25.1344 9.40445 25.0319 9.40257 24.9073C9.40257 24.7794 9.54284 24.6753 9.72144 24.6723C9.8991 24.6687 10.0446 24.7704 10.0446 24.8963ZM11.2768 24.8478C11.2981 24.9714 11.1746 25.0984 10.9982 25.1321C10.8248 25.1646 10.6642 25.0884 10.6421 24.9658C10.6205 24.8391 10.7464 24.7123 10.9194 24.6794C11.0962 24.6478 11.2543 24.7221 11.2768 24.8478Z" fill="#161614"/>
</svg>
