<svg width="100" height="100" viewBox="0 0 100 100" fill="none" xmlns="http://www.w3.org/2000/svg">
<path d="M85.4166 10.4167H14.5833L20.8333 81.25L50 89.5834L79.1666 81.25L85.4166 10.4167Z" fill="#E65100"/>
<path d="M50 16.6667V83.125L73.3333 76.4583L78.5417 16.6667H50Z" fill="#FF6D00"/>
<path d="M50 52.0833V43.75H67.9167L66.4583 67.7083L50 73.125V64.375L58.5417 61.4583L59.1667 52.0833H50ZM68.5417 35.4166L69.1667 27.0833H50V35.4166H68.5417Z" fill="white"/>
<path d="M50 64.375V73.125L33.5417 67.7083L32.7084 56.25H41.0417L41.4584 61.4583L50 64.375ZM39.7917 35.4166H50V27.0833H31.0417L32.5 52.0833H50V43.75H40.4167L39.7917 35.4166Z" fill="#EEEEEE"/>
</svg>
