<svg width="30" height="30" viewBox="0 0 30 30" fill="none" xmlns="http://www.w3.org/2000/svg">
<path d="M7.60722 29.8939C5.8231 29.8128 4.85392 29.5159 4.20929 29.2644C3.35513 28.9319 2.74616 28.536 2.10509 27.8958C1.46402 27.2556 1.06726 26.6467 0.73647 25.7925C0.485036 25.1479 0.18813 24.1787 0.106993 22.3946C0.0178322 20.466 0 19.8874 0 15.0013C0 10.1153 0.0196154 9.53755 0.106102 7.60722C0.187238 5.8231 0.485927 4.85571 0.735578 4.20929C1.06815 3.35513 1.46492 2.74616 2.1042 2.1042C2.74438 1.46402 3.35334 1.06637 4.2084 0.735578C4.85303 0.484144 5.82221 0.187238 7.60632 0.106102C9.53577 0.0178322 10.1153 0 14.9996 0C19.8856 0 20.4633 0.0196154 22.3937 0.106102C24.1778 0.187238 25.1452 0.485927 25.7916 0.735578C26.6458 1.06637 27.2547 1.46402 27.8958 2.1042C28.5369 2.74438 28.9319 3.35424 29.2644 4.2084C29.5159 4.85303 29.8128 5.82221 29.8939 7.60632C29.9822 9.53666 30 10.1144 30 15.0004C30 19.8847 29.9822 20.4642 29.8939 22.3946C29.8128 24.1787 29.5141 25.1479 29.2644 25.7925C28.9319 26.6467 28.536 27.2556 27.8958 27.8958C27.2556 28.536 26.6458 28.9319 25.7916 29.2644C25.147 29.5159 24.1778 29.8128 22.3937 29.8939C20.4651 29.9822 19.8856 30 14.9996 30C10.1153 30 9.53577 29.9831 7.60722 29.8939Z" fill="url(#paint0_radial_50_411)"/>
<path d="M7.60722 29.8939C5.8231 29.8128 4.85392 29.5159 4.20929 29.2644C3.35513 28.9319 2.74616 28.536 2.10509 27.8958C1.46402 27.2556 1.06726 26.6467 0.73647 25.7925C0.485036 25.1479 0.18813 24.1787 0.106993 22.3946C0.0178322 20.466 0 19.8874 0 15.0013C0 10.1153 0.0196154 9.53755 0.106102 7.60722C0.187238 5.8231 0.485927 4.85571 0.735578 4.20929C1.06815 3.35513 1.46492 2.74616 2.1042 2.1042C2.74438 1.46402 3.35334 1.06637 4.2084 0.735578C4.85303 0.484144 5.82221 0.187238 7.60632 0.106102C9.53577 0.0178322 10.1153 0 14.9996 0C19.8856 0 20.4633 0.0196154 22.3937 0.106102C24.1778 0.187238 25.1452 0.485927 25.7916 0.735578C26.6458 1.06637 27.2547 1.46402 27.8958 2.1042C28.5369 2.74438 28.9319 3.35424 29.2644 4.2084C29.5159 4.85303 29.8128 5.82221 29.8939 7.60632C29.9822 9.53666 30 10.1144 30 15.0004C30 19.8847 29.9822 20.4642 29.8939 22.3946C29.8128 24.1787 29.5141 25.1479 29.2644 25.7925C28.9319 26.6467 28.536 27.2556 27.8958 27.8958C27.2556 28.536 26.6458 28.9319 25.7916 29.2644C25.147 29.5159 24.1778 29.8128 22.3937 29.8939C20.4651 29.9822 19.8856 30 14.9996 30C10.1153 30 9.53577 29.9831 7.60722 29.8939Z" fill="url(#paint1_radial_50_411)"/>
<path d="M11.3168 15.0638C11.3168 13.0122 12.9795 11.3485 15.0312 11.3485C17.0829 11.3485 18.7465 13.0122 18.7465 15.0638C18.7465 17.1155 17.0829 18.7792 15.0312 18.7792C12.9795 18.7792 11.3168 17.1155 11.3168 15.0638ZM9.30833 15.0638C9.30833 18.2246 11.8705 20.7867 15.0312 20.7867C18.192 20.7867 20.7541 18.2246 20.7541 15.0638C20.7541 11.9031 18.192 9.34099 15.0312 9.34099C11.8705 9.34099 9.30842 11.9029 9.30842 15.0638H9.30833ZM19.6433 9.11408C19.6432 9.37859 19.7215 9.6372 19.8684 9.85719C20.0153 10.0772 20.2241 10.2487 20.4684 10.35C20.7128 10.4513 20.9817 10.4779 21.2411 10.4264C21.5006 10.3749 21.7389 10.2476 21.926 10.0607C22.1132 9.87372 22.2406 9.63546 22.2923 9.37605C22.344 9.11664 22.3177 8.84772 22.2165 8.60331C22.1154 8.35889 21.9441 8.14994 21.7242 8.0029C21.5043 7.85585 21.2458 7.77731 20.9813 7.77721H20.9807C20.6262 7.77737 20.2862 7.91826 20.0354 8.16892C19.7846 8.41958 19.6436 8.75952 19.6433 9.11408ZM10.5286 24.1357C9.44198 24.0862 8.85138 23.9053 8.4589 23.7523C7.93855 23.5498 7.56729 23.3085 7.17694 22.9187C6.7866 22.5289 6.54497 22.158 6.34329 21.6376C6.19029 21.2453 6.00929 20.6546 5.9599 19.568C5.90587 18.3932 5.89508 18.0403 5.89508 15.064C5.89508 12.0878 5.90676 11.7358 5.9599 10.5601C6.00938 9.47348 6.19172 8.88387 6.34329 8.4904C6.54586 7.97006 6.78713 7.5988 7.17694 7.20845C7.56675 6.81811 7.93766 6.57649 8.4589 6.3748C8.8512 6.22181 9.44198 6.04081 10.5286 5.99141C11.7034 5.93738 12.0563 5.9266 15.0312 5.9266C18.0061 5.9266 18.3594 5.9381 19.5352 5.99159C20.6218 6.04108 21.2114 6.22341 21.6048 6.37498C22.1252 6.57666 22.4965 6.81882 22.8868 7.20863C23.2771 7.59844 23.5179 7.97024 23.7205 8.49058C23.8735 8.88289 24.0544 9.47366 24.1038 10.5603C24.1579 11.736 24.1687 12.0879 24.1687 15.0642C24.1687 18.0405 24.1579 18.3924 24.1038 19.5681C24.0544 20.6547 23.8725 21.2453 23.7205 21.6378C23.5179 22.1582 23.2766 22.5294 22.8868 22.9189C22.497 23.3083 22.1252 23.5499 21.6048 23.7525C21.2125 23.9055 20.6218 24.0865 19.5352 24.1359C18.3604 24.1899 18.0075 24.2007 15.0312 24.2007C12.0549 24.2007 11.703 24.1899 10.5286 24.1359V24.1357ZM10.4363 3.98629C9.24984 4.04032 8.4391 4.22845 7.73108 4.50395C6.99826 4.78846 6.37708 5.17016 5.75679 5.78947C5.1365 6.40877 4.75578 7.03004 4.47127 7.76375C4.19576 8.47221 4.00763 9.2825 3.9536 10.469C3.89868 11.6573 3.88611 12.0372 3.88611 15.0638C3.88611 18.0905 3.89868 18.4704 3.9536 19.6587C4.00763 20.8453 4.19576 21.6555 4.47127 22.3639C4.75578 23.0967 5.13659 23.7192 5.75679 24.3382C6.37699 24.9573 6.99737 25.3384 7.73108 25.6237C8.44044 25.8992 9.24984 26.0874 10.4363 26.1414C11.6253 26.1954 12.0046 26.2089 15.0312 26.2089C18.0579 26.2089 18.4378 26.1963 19.6261 26.1414C20.8127 26.0874 21.6229 25.8992 22.3313 25.6237C23.0641 25.3384 23.6853 24.9575 24.3056 24.3382C24.9259 23.7189 25.3058 23.0967 25.5911 22.3639C25.8666 21.6555 26.0557 20.8452 26.1088 19.6587C26.1628 18.4695 26.1754 18.0905 26.1754 15.0638C26.1754 12.0372 26.1628 11.6573 26.1088 10.469C26.0548 9.28241 25.8666 8.47177 25.5911 7.76375C25.3058 7.03094 24.9249 6.40976 24.3056 5.78947C23.6863 5.16918 23.0641 4.78846 22.3322 4.50395C21.6229 4.22845 20.8126 4.03943 19.627 3.98629C18.4385 3.93199 18.0587 3.91879 15.0325 3.91879C12.0063 3.91879 11.6257 3.93136 10.4367 3.98629" fill="white"/>
<defs>
<radialGradient id="paint0_radial_50_411" cx="0" cy="0" r="1" gradientUnits="userSpaceOnUse" gradientTransform="translate(1.94157 29.3428) scale(38.0889)">
<stop offset="0.09" stop-color="#FA8F21"/>
<stop offset="0.78" stop-color="#D82D7E"/>
</radialGradient>
<radialGradient id="paint1_radial_50_411" cx="0" cy="0" r="1" gradientUnits="userSpaceOnUse" gradientTransform="translate(20.78 28.3795) scale(33.5186)">
<stop offset="0.64" stop-color="#8C3AAA" stop-opacity="0"/>
<stop offset="1" stop-color="#8C3AAA"/>
</radialGradient>
</defs>
</svg>
