<svg width="30" height="30" viewBox="0 0 30 30" fill="none" xmlns="http://www.w3.org/2000/svg">
<path d="M0 2.20039C0 1.01896 0.993047 0.0599976 2.21719 0.0599976H27.7828C29.0074 0.0599976 30 1.01896 30 2.20039V27.8C30 28.9817 29.0074 29.94 27.7828 29.94H2.21719C0.993164 29.94 0 28.9819 0 27.8003V2.20004V2.20039Z" fill="#006699"/>
<path d="M9.11672 25.0656V11.6135H4.62749V25.0656H9.11719H9.11672ZM6.87304 9.7772C8.4382 9.7772 9.41262 8.74424 9.41262 7.45333C9.38332 6.13301 8.4382 5.12888 6.90281 5.12888C5.36636 5.12888 4.36288 6.13301 4.36288 7.45321C4.36288 8.74412 5.33695 9.77708 6.84363 9.77708H6.87269L6.87304 9.7772ZM11.6016 25.0656H16.0904V17.5542C16.0904 17.1527 16.1197 16.7501 16.2383 16.4633C16.5627 15.6597 17.3013 14.8279 18.5418 14.8279C20.1658 14.8279 20.8158 16.0613 20.8158 17.8699V25.0656H25.3045V17.3526C25.3045 13.2209 23.0902 11.2982 20.1367 11.2982C17.7152 11.2982 16.6518 12.6461 16.0609 13.5643H16.0908V11.614H11.6018C11.6604 12.876 11.6014 25.0661 11.6014 25.0661L11.6016 25.0656Z" fill="white"/>
</svg>
