<svg width="32" height="32" viewBox="0 0 32 32" fill="none" xmlns="http://www.w3.org/2000/svg">
<path d="M17.6 4.79999C17.1756 4.79999 16.7686 4.96856 16.4686 5.26862C16.1685 5.56868 16 5.97564 16 6.39999C16 6.82433 16.1685 7.2313 16.4686 7.53136C16.7686 7.83142 17.1756 7.99999 17.6 7.99999H21.7376L11.6688 18.0688C11.5159 18.2164 11.3941 18.3929 11.3102 18.5881C11.2263 18.7833 11.1822 18.9933 11.1804 19.2057C11.1785 19.4182 11.219 19.6289 11.2994 19.8255C11.3799 20.0221 11.4987 20.2008 11.6489 20.351C11.7992 20.5012 11.9778 20.6201 12.1744 20.7005C12.3711 20.781 12.5818 20.8214 12.7942 20.8196C13.0066 20.8177 13.2166 20.7736 13.4118 20.6897C13.607 20.6059 13.7836 20.484 13.9312 20.3312L24 10.2624V14.4C24 14.8243 24.1685 15.2313 24.4686 15.5314C24.7686 15.8314 25.1756 16 25.6 16C26.0243 16 26.4313 15.8314 26.7313 15.5314C27.0314 15.2313 27.2 14.8243 27.2 14.4V6.39999C27.2 5.97564 27.0314 5.56868 26.7313 5.26862C26.4313 4.96856 26.0243 4.79999 25.6 4.79999H17.6Z" fill="#F1DDBF"/>
<path d="M8.00005 8C7.15136 8 6.33742 8.33714 5.73731 8.93726C5.13719 9.53737 4.80005 10.3513 4.80005 11.2V24C4.80005 24.8487 5.13719 25.6626 5.73731 26.2627C6.33742 26.8629 7.15136 27.2 8.00005 27.2H20.8C21.6487 27.2 22.4627 26.8629 23.0628 26.2627C23.6629 25.6626 24 24.8487 24 24V19.2C24 18.7757 23.8315 18.3687 23.5314 18.0686C23.2314 17.7686 22.8244 17.6 22.4 17.6C21.9757 17.6 21.5687 17.7686 21.2687 18.0686C20.9686 18.3687 20.8 18.7757 20.8 19.2V24H8.00005V11.2H12.8C13.2244 11.2 13.6314 11.0314 13.9314 10.7314C14.2315 10.4313 14.4 10.0243 14.4 9.6C14.4 9.17565 14.2315 8.76869 13.9314 8.46863C13.6314 8.16857 13.2244 8 12.8 8H8.00005Z" fill="#F1DDBF"/>
</svg>
