<svg width="90" height="90" viewBox="0 0 90 90" fill="none" xmlns="http://www.w3.org/2000/svg">
<path d="M27.6182 75.276C27.5528 75.1606 27.4946 75.0414 27.4438 74.919C27.093 74.1066 26.9852 73.21 27.1335 72.3376H6.35868L37.2325 18.0046L47.3686 35.8231L50.307 30.6232L41.4712 15.0579C41.0478 14.2607 40.4314 13.5824 39.6782 13.0849C38.925 12.5874 38.0591 12.2867 37.1597 12.2101C36.2622 12.2509 35.3941 12.5428 34.6542 13.0526C33.9144 13.5623 33.3324 14.2695 32.9746 15.0936L1.69706 70.0857C1.22953 70.8621 0.95997 71.7415 0.912084 72.6466C0.864198 73.5516 1.03946 74.4546 1.42244 75.276C1.90344 76.0345 2.58712 76.6433 3.39614 77.0335C4.20516 77.4237 5.10723 77.5797 6.00031 77.4839H32.1974C31.3042 77.5812 30.4016 77.4258 29.5923 77.0355C28.783 76.6452 28.0995 76.0356 27.6195 75.276H27.6182Z" fill="#00C492"/>
<path d="M87.8471 70.0844L62.1443 24.8096C61.7227 24.004 61.1049 23.3175 60.3481 22.8136C59.5912 22.3096 58.7196 22.0044 57.8136 21.9261C56.9172 21.965 56.0498 22.2551 55.3103 22.7632C54.5707 23.2714 53.9889 23.9771 53.6312 24.8L50.307 30.6219L53.2646 35.8231L57.8411 27.7206L83.2692 72.3362H73.6C73.7235 73.0737 73.654 73.8306 73.3981 74.5332C73.3442 74.6885 73.2767 74.8388 73.1963 74.9822L73.1139 75.147C72.5886 75.8889 71.8886 76.49 71.0758 76.8971C70.263 77.3043 69.3624 77.5049 68.4537 77.4812H83.5795C84.4884 77.5056 85.3893 77.3053 86.2022 76.8981C87.0151 76.4909 87.715 75.8894 88.2398 75.147C88.654 74.3507 88.8368 73.4544 88.7674 72.5595C88.6979 71.6647 88.3791 70.8072 87.8471 70.0844Z" fill="#008776"/>
<path d="M73.1154 75.1483L73.1978 74.9835C73.2777 74.84 73.3448 74.6898 73.3982 74.5345C73.6541 73.8319 73.7237 73.075 73.6001 72.3376C73.4573 71.5422 73.1717 70.7793 72.757 70.0857L53.2839 35.8231L50.3084 30.6232L47.3508 35.8231L27.8846 70.0857C27.5067 70.7876 27.2526 71.5494 27.1335 72.3376C26.9768 73.2079 27.0755 74.1049 27.4177 74.9203C27.4685 75.0428 27.5267 75.162 27.5921 75.2774C28.0733 76.0357 28.757 76.6442 29.566 77.0341C30.3751 77.4241 31.277 77.5799 32.17 77.4839H68.4263C69.3395 77.5109 70.2452 77.312 71.0629 76.9048C71.8807 76.4975 72.5853 75.8947 73.114 75.1497L73.1154 75.1483ZM50.3071 41.0243L68.1064 72.3362H32.516L50.3071 41.0243Z" fill="#2D4A5D"/>
</svg>
