<svg width="91" height="90" viewBox="0 0 91 90" fill="none" xmlns="http://www.w3.org/2000/svg">
<path d="M75.2506 48.6675C72.3669 48.6825 69.8694 49.3744 67.7769 50.4075C67.0119 48.8794 66.2356 47.535 66.1062 46.5357C65.9544 45.3694 65.7781 44.6719 65.9619 43.2825C66.1456 41.8932 66.95 39.9244 66.9387 39.7763C66.9275 39.6282 66.7587 38.9213 65.0956 38.9082C63.4325 38.8969 62.0094 39.2288 61.8425 39.6675C61.6756 40.1063 61.355 41.0944 61.1562 42.1257C60.8656 43.6332 57.8356 49.0125 56.1162 51.825C55.5537 50.7263 55.0756 49.7588 54.9762 48.9938C54.8244 47.8275 54.6481 47.13 54.8319 45.7407C55.0156 44.3513 55.82 42.3825 55.8087 42.2344C55.7975 42.0863 55.6287 41.3794 53.9656 41.3663C52.3025 41.355 50.8794 41.6869 50.7125 42.1257C50.5456 42.5644 50.3656 43.59 50.0262 44.5838C49.685 45.5757 45.6594 54.5475 44.6037 56.8744C44.0656 58.0594 43.5987 59.0119 43.2687 59.6607C43.2669 59.6588 43.2669 59.6569 43.2669 59.6569C43.2669 59.6569 43.2462 59.7 43.2125 59.7732C42.9294 60.3263 42.7625 60.6319 42.7625 60.6319C42.7625 60.6319 42.7644 60.6357 42.7681 60.6432C42.5431 61.05 42.3031 61.4269 42.185 61.4269C42.1025 61.4269 41.9356 60.345 42.2206 58.86C42.8206 55.7475 44.2587 50.895 44.2456 50.7263C44.2381 50.64 44.5137 49.7944 43.3062 49.3519C42.1325 48.9225 41.7144 49.6388 41.6075 49.6407C41.5044 49.6425 41.4275 49.8938 41.4275 49.8938C41.4275 49.8938 42.7344 44.4357 38.9337 44.4357C36.5562 44.4357 33.2637 47.0363 31.6419 49.3932C30.6181 49.9519 28.4262 51.1482 26.1031 52.425C25.2106 52.9163 24.2994 53.4169 23.435 53.8932C23.3769 53.8275 23.3169 53.7638 23.2569 53.6982C18.6462 48.78 10.1263 45.3019 10.4863 38.6888C10.6175 36.285 11.4538 29.955 26.8606 22.2788C39.4812 15.99 49.5856 17.7207 51.3312 21.555C53.825 27.0357 45.9312 37.2188 32.825 38.6888C27.8319 39.2494 25.2012 37.3125 24.5469 36.5925C23.8587 35.8332 23.7556 35.7994 23.4987 35.9419C23.0806 36.1744 23.345 36.8438 23.4987 37.2432C23.8906 38.2613 25.4956 40.0669 28.2331 40.9669C30.6425 41.7582 36.5056 42.1913 43.595 39.4482C51.5375 36.3769 57.7381 27.8307 55.9156 20.6888C54.0631 13.425 42.0181 11.0363 30.6181 15.0863C23.825 17.4975 16.4806 21.2813 11.1988 26.22C4.91938 32.0925 3.91813 37.2057 4.33063 39.3413C5.79688 46.9313 16.2575 51.8738 20.4462 55.5357C20.24 55.65 20.045 55.7569 19.8687 55.8544C17.7688 56.8932 9.79438 61.0669 7.79938 65.475C5.53625 70.4757 8.15938 74.0644 9.89563 74.5482C15.275 76.0444 20.795 73.3519 23.7631 68.9269C26.7294 64.5038 26.3675 58.7419 25.0062 56.1132C24.9894 56.0813 24.9706 56.0494 24.9537 56.0157C25.4956 55.695 26.0487 55.3688 26.5962 55.0463C27.665 54.4182 28.715 53.8332 29.6244 53.3382C29.1144 54.7332 28.7412 56.4075 28.5481 58.8244C28.3194 61.6632 29.4837 65.3325 31.0062 66.7763C31.6775 67.4119 32.4837 67.4269 32.9937 67.4269C34.7656 67.4269 35.5737 65.9532 36.4644 64.2094C37.5556 62.0719 38.525 59.5819 38.525 59.5819C38.525 59.5819 37.31 66.3057 40.6212 66.3057C41.8287 66.3057 43.0419 64.74 43.5837 63.9432C43.5856 63.9525 43.5856 63.9563 43.5856 63.9563C43.5856 63.9563 43.6175 63.9038 43.6794 63.8007C43.805 63.6094 43.8762 63.4875 43.8762 63.4875C43.8762 63.4875 43.8781 63.4744 43.8819 63.4519C44.3675 62.61 45.4437 60.69 47.0562 57.5232C49.1412 53.4319 51.14 48.3057 51.14 48.3057C51.14 48.3057 51.3256 49.5582 51.935 51.6319C52.2931 52.8507 53.0544 54.1988 53.6562 55.4925C53.1725 56.1638 52.8762 56.5482 52.8762 56.5482C52.8762 56.5482 52.8781 56.5557 52.8837 56.5688C52.4975 57.0825 52.0644 57.6357 51.6106 58.1757C49.9644 60.135 48.005 62.3738 47.7425 63.0188C47.4331 63.78 47.5062 64.3388 48.1044 64.7907C48.5412 65.1188 49.3175 65.1713 50.1294 65.1169C51.6087 65.0175 52.6475 64.65 53.1612 64.4269C53.9619 64.1438 54.8937 63.6994 55.7675 63.0563C57.3819 61.8694 58.355 60.1725 58.2612 57.9225C58.2087 56.6832 57.815 55.455 57.3144 54.2963C57.4606 54.0863 57.6069 53.8725 57.755 53.6588C60.2994 49.9388 62.2737 45.8513 62.2737 45.8513C62.2737 45.8513 62.4594 47.1038 63.0687 49.1775C63.3762 50.2257 63.9856 51.3713 64.5331 52.4925C62.1406 54.4369 60.6575 56.6963 60.1419 58.1775C59.1894 60.9188 59.9356 62.16 61.3344 62.4432C61.9681 62.5707 62.8644 62.28 63.5375 61.995C64.3756 61.7175 65.3825 61.2544 66.3237 60.5625C67.9381 59.3757 69.4906 57.7144 69.3969 55.4663C69.3537 54.4425 69.0762 53.4263 68.6994 52.4513C70.7281 51.6057 73.3531 51.1369 76.6981 51.5269C83.8737 52.365 85.28 56.8444 85.0119 58.7194C84.7419 60.5944 83.2381 61.6257 82.7337 61.9369C82.2312 62.2482 82.0775 62.3569 82.1187 62.5875C82.1806 62.9232 82.4131 62.9119 82.8425 62.8388C83.4331 62.7394 86.6094 61.3144 86.7462 57.8532C86.9169 53.4544 82.7075 48.6282 75.2506 48.6675ZM19.9437 67.3125C17.5662 69.9057 14.2475 70.8844 12.8225 70.0594C11.285 69.1688 11.8944 65.3513 14.81 62.5988C16.5875 60.9225 18.8825 59.3775 20.405 58.4269C20.7519 58.2188 21.26 57.9132 21.8787 57.5419C21.9819 57.4838 22.04 57.4519 22.04 57.4519L22.0381 57.4482C22.1581 57.3769 22.28 57.3038 22.4056 57.2269C23.4687 61.1438 22.4394 64.5919 19.9437 67.3125ZM37.2594 55.5432C36.4325 57.5607 34.7 62.7244 33.6444 62.4469C32.7387 62.2088 32.1875 58.2844 33.4644 54.4219C34.1056 52.4775 35.4781 50.1544 36.2844 49.2525C37.5819 47.8013 39.0106 47.3269 39.3575 47.9157C39.7981 48.6657 37.7787 54.2775 37.2594 55.5432ZM51.5637 62.3682C51.2131 62.5519 50.8906 62.6663 50.7425 62.5782C50.6319 62.5125 50.8869 62.2707 50.8869 62.2707C50.8869 62.2707 52.6756 60.345 53.3806 59.4694C53.7912 58.9594 54.2656 58.3538 54.7831 57.6788C54.7869 57.7463 54.7887 57.8138 54.7887 57.8794C54.785 60.1857 52.5575 61.7419 51.5637 62.3682ZM62.5831 59.8557C62.3206 59.67 62.3656 59.0682 63.2262 57.1913C63.5637 56.4544 64.3362 55.215 65.675 54.03C65.8306 54.5175 65.9244 54.9844 65.9225 55.4194C65.9056 58.3219 63.8356 59.4057 62.5831 59.8557Z" fill="#F06292"/>
</svg>
