<svg width="101" height="100" viewBox="0 0 101 100" fill="none" xmlns="http://www.w3.org/2000/svg">
<path d="M88 12.5H13V87.5H88V12.5Z" fill="#1976D2"/>
<path d="M57.7708 45.8334H30.1396V52.6334H40.05V83.3334H47.9021V52.6334H57.7708V45.8334Z" fill="white"/>
<path d="M82.1542 54.3417C82.1542 54.3417 78.4313 51.8584 74.2229 51.8584C70.0146 51.8584 68.5 53.8584 68.5 55.9959C68.5 61.5125 83.8771 60.9605 83.8771 72.0625C83.8771 89.1646 60.4313 81.5792 60.4313 81.5792V73.375C60.4313 73.375 64.9146 76.7542 70.2917 76.7542C75.6688 76.7542 75.4646 73.2375 75.4646 72.7542C75.4646 67.6521 60.225 67.6521 60.225 56.3417C60.225 40.9646 82.4292 47.0313 82.4292 47.0313L82.1542 54.3417Z" fill="white"/>
</svg>
